<svg width="48" height="25" viewBox="0 0 48 25" fill="none" xmlns="http://www.w3.org/2000/svg">
<path d="M23.0455 12.3636C23.0455 14.9545 22.5417 17.1402 21.5341 18.9205C20.5265 20.6932 19.1667 22.0379 17.4545 22.9545C15.7424 23.8636 13.8333 24.3182 11.7273 24.3182C9.60606 24.3182 7.68939 23.8598 5.97727 22.9432C4.27273 22.0189 2.91667 20.6705 1.90909 18.8977C0.909091 17.1174 0.409091 14.9394 0.409091 12.3636C0.409091 9.77273 0.909091 7.59091 1.90909 5.81818C2.91667 4.03788 4.27273 2.69318 5.97727 1.78409C7.68939 0.867423 9.60606 0.40909 11.7273 0.40909C13.8333 0.40909 15.7424 0.867423 17.4545 1.78409C19.1667 2.69318 20.5265 4.03788 21.5341 5.81818C22.5417 7.59091 23.0455 9.77273 23.0455 12.3636ZM16.5455 12.3636C16.5455 10.9697 16.3598 9.79545 15.9886 8.84091C15.625 7.87879 15.0833 7.15151 14.3636 6.65909C13.6515 6.15909 12.7727 5.90909 11.7273 5.90909C10.6818 5.90909 9.79924 6.15909 9.07955 6.65909C8.36742 7.15151 7.82576 7.87879 7.45455 8.84091C7.09091 9.79545 6.90909 10.9697 6.90909 12.3636C6.90909 13.7576 7.09091 14.9356 7.45455 15.8977C7.82576 16.8523 8.36742 17.5795 9.07955 18.0795C9.79924 18.572 10.6818 18.8182 11.7273 18.8182C12.7727 18.8182 13.6515 18.572 14.3636 18.0795C15.0833 17.5795 15.625 16.8523 15.9886 15.8977C16.3598 14.9356 16.5455 13.7576 16.5455 12.3636ZM47.696 9.45455H41.2869C41.2415 8.92424 41.1203 8.44318 40.9233 8.01136C40.7339 7.57955 40.4688 7.20833 40.1278 6.89773C39.7945 6.57954 39.3892 6.33712 38.9119 6.17045C38.4347 5.99621 37.893 5.90909 37.2869 5.90909C36.2263 5.90909 35.3286 6.16667 34.5938 6.68182C33.8665 7.19697 33.3134 7.93561 32.9347 8.89773C32.5634 9.85985 32.3778 11.0152 32.3778 12.3636C32.3778 13.7879 32.5672 14.9811 32.946 15.9432C33.3324 16.8977 33.8892 17.6174 34.6165 18.1023C35.3438 18.5795 36.2188 18.8182 37.2415 18.8182C37.8248 18.8182 38.3475 18.7462 38.8097 18.6023C39.2718 18.4508 39.6733 18.2348 40.0142 17.9545C40.3551 17.6742 40.6316 17.3371 40.8438 16.9432C41.0634 16.5417 41.2112 16.0909 41.2869 15.5909L47.696 15.6364C47.6203 16.6212 47.3438 17.625 46.8665 18.6477C46.3892 19.6629 45.7112 20.6023 44.8324 21.4659C43.9612 22.322 42.8816 23.0114 41.5938 23.5341C40.3059 24.0568 38.8097 24.3182 37.1051 24.3182C34.9688 24.3182 33.0521 23.8598 31.3551 22.9432C29.6657 22.0265 28.3286 20.678 27.3438 18.8977C26.3665 17.1174 25.8778 14.9394 25.8778 12.3636C25.8778 9.77273 26.3778 7.59091 27.3778 5.81818C28.3778 4.03788 29.7263 2.69318 31.4233 1.78409C33.1203 0.867423 35.0142 0.40909 37.1051 0.40909C38.5748 0.40909 39.9271 0.609847 41.1619 1.01136C42.3968 1.41288 43.4801 2 44.4119 2.77273C45.3438 3.53788 46.0938 4.48106 46.6619 5.60227C47.2301 6.72348 47.5748 8.00758 47.696 9.45455Z" fill="#4EBAFF"/>
</svg>
